<svg width="1600" height="1200" viewBox="0 0 1600 1200" xmlns="http://www.w3.org/2000/svg">
    <path d="M262.996 671.172s45.33 8.94 60.36-7.41v35.12s-42.7 18.8-60.36-27.71Z" fill="#FA3369"/>
    <path d="M327.759 655.752h-8.9v96.76h8.9v-96.76Z" fill="#0E104F"/>
    <path d="M1347.21 608.771c-36.52-14.77-81.72 11.83-101 59.42s-5.21 98.1 31.3 112.9c36.51 14.8 81.72-11.84 101-59.42s5.21-98.13-31.3-112.9Zm17.32 107.26c-15.19 37.54-50.85 58.53-79.66 46.88-28.81-11.65-39.86-51.54-24.68-89.08s50.81-58.54 79.66-46.88c28.85 11.66 39.86 51.53 24.68 89.08Z"
          fill="#64B1E0" stroke="#272B36" stroke-width="2.23" stroke-miterlimit="10"/>
    <path d="m1095.8 838.212 33.11-81.86-68.45-27.69-51.3 126.84-106.234-43-9.59 23.79L1146 938.412a25.55 25.55 0 0 0-.17-19.561 25.585 25.585 0 0 0-13.94-13.719l-9.28-3.75a48.569 48.569 0 0 1-15.84-10.379 48.457 48.457 0 0 1-10.66-15.651 48.42 48.42 0 0 1-3.85-18.538 48.396 48.396 0 0 1 3.54-18.602Z"
          fill="#3EC6F2" stroke="#272B36" stroke-width="2.23" stroke-miterlimit="10"/>
    <path d="m921.776 671.847 243.734 98.573-6.57 16.233a16.895 16.895 0 0 1-9.08 9.221 16.937 16.937 0 0 1-12.95.099L908.856 703.74l12.902-31.9.018.007Z"
          fill="#64B1E0"/>
    <path d="m949.435 664.467 243.735 98.573-6.57 16.232a16.918 16.918 0 0 1-22.03 9.342l-228.053-92.233 12.909-31.918.009.004Z"
          fill="#64B1E0" stroke="#272B36" stroke-width="2.23" stroke-miterlimit="10"/>
    <path d="m1058.66 581.838 225.14 91.055-25.23 62.391a59.254 59.254 0 0 1-12.67 19.303 59.14 59.14 0 0 1-19.09 12.987 59.14 59.14 0 0 1-22.6 4.693c-7.77.066-15.48-1.4-22.68-4.314l-170.29-68.871 47.42-117.244Z"
          fill="#3EC6F2"/>
    <path d="m1322.12 642.032-252.63-102.173-20.93 51.748 252.63 102.173 20.93-51.748ZM195.367 981.702h263.18s-51.32-229.3-128-242.82c-76.68-13.52-135.18 242.82-135.18 242.82Z"
          fill="#64B1E0"/>
    <path d="M597.117 981.7h-193.07s12.25-155.39 88-170.14 105.07 170.14 105.07 170.14Z" fill="#3377B8" stroke="#272B36"
          stroke-width="2.23" stroke-miterlimit="10"/>
    <path d="m171.636 272.051 7.58 15.37 16.97 2.47-12.28 11.96 2.9 16.89-15.17-7.98-15.17 7.98 2.9-16.89-12.28-11.96 16.97-2.47 7.58-15.37Z"
          fill="#11417D"/>
    <path d="m343.929 554.512 4.96 10.06 11.1 1.62-8.03 7.83 1.89 11.05-9.92-5.22-9.93 5.22 1.89-11.05-8.03-7.83 11.1-1.62 4.97-10.06Z"
          fill="#FA3369"/>
    <path d="m1113.56 227.291 2.48 5.03 5.55.8-4.01 3.92.95 5.53-4.97-2.61-4.96 2.61.95-5.53-4.02-3.92 5.55-.8 2.48-5.03Z"
          fill="#3377B8"/>
    <path d="m1339.25 506.811 8.47 17.17 18.96 2.76-13.72 13.36 3.24 18.88-16.95-8.91-16.95 8.91 3.24-18.88-13.72-13.36 18.95-2.76 8.48-17.17Z"
          fill="#FA3369"/>
    <path d="M172.638 530.061a5.38 5.38 0 1 0 0-10.76 5.38 5.38 0 0 0 0 10.76Z" fill="#64B1E0"/>
    <path d="M592.249 224.701a4.87 4.87 0 1 0 .001-9.739 4.87 4.87 0 0 0-.001 9.739Z" fill="#3EC6F2"/>
    <path d="M1423.63 784.791c3.68 0 6.66-2.982 6.66-6.66s-2.98-6.66-6.66-6.66a6.659 6.659 0 0 0-6.66 6.66c0 3.678 2.98 6.66 6.66 6.66Z"
          fill="#0E104F"/>
    <path d="M1515.1 319.822a2.37 2.37 0 1 0 0-4.74 2.37 2.37 0 1 0 0 4.74Z" stroke="#000" stroke-width=".27"
          stroke-miterlimit="10"/>
    <path d="M495.298 303.572s103.55 288.37 303.58 231.86l133.12 10.6s151.652-26.43 271.702-242.46l99.3 45.06s-112.39 267.29-248.81 396.51c0 0 39.94 143.35 30.92 236.56H620.828s-5.15-105.23 37.47-256.5c0 0-250.5-107.81-260.65-375.58l97.65-46.05Z"
          fill="#11417D"/>
    <path d="m495.298 303.572-97.65 46.05c.414 10.854 1.21 21.44 2.39 31.76 20.81 9 69.8 20.41 109.18-44.91-9.22-19.92-13.92-32.9-13.92-32.9Z"
          fill="#3377B8" stroke="#272B36" stroke-width="2.23" stroke-miterlimit="10"/>
    <path d="M371.698 314.511s7.44 38.92 50.38 42.09c42.94 3.17 73.22-53 73.22-53s19.39-102.34-52.54-118.89c0 0-19.4-7.13-32.31 11.62 0 0-41.24-8.53-50.35 23.7 0 0-30.7 10.19-26.4 43.76 4.3 33.57 22.62 54.5 38 50.72Z"
          fill="#C99D66" stroke="#272B36" stroke-width="2.23" stroke-miterlimit="10"/>
    <path d="M416.887 294.962s-35 21.38-51.19-2c-14.36-20.79 12.86-40.76 49.59-45.72a36.155 36.155 0 0 1 28.13 7.95 49.057 49.057 0 0 1 12.58 15.34"
          stroke="#272B36" stroke-width="2.23" stroke-miterlimit="10"/>
    <path d="M371.699 314.512s7.89.23 8.93-11.36M360.099 220.002s-5.55 19.84 12 43.53M410.446 196.291s-25.46 36.22-4.57 52.57"
          stroke="#272B36" stroke-width="2.23" stroke-miterlimit="10"/>
    <path d="M1186.52 332.821c13.28 23.19 43.25 59.59 99 54.76 11.25-24.22 17.44-39 17.44-39l-99.3-45.06c-5.65 10.194-11.36 19.96-17.14 29.3Z"
          fill="#3377B8" stroke="#272B36" stroke-width="2.23" stroke-miterlimit="10"/>
    <path d="M1327.27 314.511s-7.45 38.92-50.39 42.09c-42.94 3.17-73.22-53-73.22-53s-19.39-102.34 52.54-118.89c0 0 19.4-7.13 32.31 11.62 0 0 41.24-8.53 50.36 23.7 0 0 30.69 10.19 26.4 43.76-4.29 33.57-22.63 54.5-38 50.72Z"
          fill="#C99D66" stroke="#272B36" stroke-width="2.23" stroke-miterlimit="10"/>
    <path d="M1282.07 294.961s35 21.38 51.2-2c14.35-20.79-12.87-40.76-49.6-45.72a36.2 36.2 0 0 0-14.91 1.007 36.123 36.123 0 0 0-13.22 6.943 49.077 49.077 0 0 0-12.54 15.34"
          stroke="#272B36" stroke-width="2.23" stroke-miterlimit="10"/>
    <path d="M1288.51 196.291s25.47 36.22 4.57 52.57M1327.27 314.512s-7.9.23-8.93-11.36M1338.87 220.002s5.54 19.84-12 43.53"
          stroke="#272B36" stroke-width="2.23" stroke-miterlimit="10"/>
    <path d="M751.707 542.701c5.58 23.85 30.86 115.63 98.83 165l31.57-56.41s-70.84-49.75-95.46-112.83a184.248 184.248 0 0 1-34.94 4.24Z"
          fill="#0E104F"/>
    <path d="M899.137 725.2s69-90 66.36-189.72a223.393 223.393 0 0 1-28.44 9.42c-6.23 16.1-31.39 76.43-72 113.46-47.21 43.04 34.08 66.84 34.08 66.84Z"
          fill="#0E104F"/>
    <path d="M876.748 762.461c32.215 0 58.33-26.115 58.33-58.33s-26.115-58.33-58.33-58.33-58.33 26.115-58.33 58.33 26.115 58.33 58.33 58.33Z"
          fill="#3377B8"/>
    <path d="M876.747 752.512c26.72 0 48.38-21.661 48.38-48.38 0-26.72-21.66-48.38-48.38-48.38-26.719 0-48.38 21.66-48.38 48.38 0 26.719 21.661 48.38 48.38 48.38ZM811.837 517.121s-1.77 18.9-18 19c-16.23.1-27.23-4.93-27.23-4.93s-29.31 5.87-33.61-20.7c0 0 .63-8.79-5.65-10.94-6.28-2.15-24.31-6.61-25-30.07 0 0-.57-8.78-3.82-10.81-3.25-2.03-49.49-25-14.8-67.27 0 0-37.48-57.8 12.95-73.59 0 0-6-22.27 11.38-40.14a44.997 44.997 0 0 1 39.1-13.32s0-22.76 24.07-42.62c24.07-19.86 59.43-6.84 59.43-6.84s27.1-45.38 78.15-20.81c0 0 28.45-21.2 52.45.09 24 21.29 14.52 26.34 45.273 36 30.75 9.66 53.8 55.21 30.9 71.67 0 0 31.17 19.16 30.12 52.73-1.05 33.57-25 39.42-25 39.42s24.24 34.21 3.81 61.82-40.44 24.41-52.903 45.76c-12.46 21.35-52.09 16-52.09 16l-129.53-.45Z"
          fill="#FA3369"/>
    <path d="M769.438 542.412c15 40.57 37.36 90.62 67.82 121.35M953.497 541.152c-5.28 35-26.09 85.94-46.809 114.6"
          stroke="#3377B8" stroke-width="4" stroke-miterlimit="10"/>
    <path d="m861.219 696.91 16.71-21.43a1508.487 1508.487 0 0 0-1.49 57.91M868.746 734.422a11.09 11.09 0 0 1 4 .27c4.015.689 8.122.641 12.12-.14"
          stroke="#fff" stroke-width="4" stroke-miterlimit="10"/>
    <path d="m1181.26 585.072 126.84 51.3M1196.65 651.511l-48.81-19.74M1278.98 684.811l-9.25 22.88M1131.93 747.912l-57.43-23.23"
          stroke="#272B36" stroke-width="2.23" stroke-miterlimit="10"/>
    <path d="M490.868 981.942s36.16-21.95 39-37.8c2.84-15.85-47.45 17.33-53 30.94-1 2.55 1.94 6.86 1.94 6.86h12.06Z"
          fill="#64B1E0"/>
    <path d="M468.199 981.941s-9.94-37.35 10.62-65 0 65 0 65h-10.62Z" fill="#3EC6F2"/>
    <path d="M52.508 981.701H1467.61M471.999 928.651a60.803 60.803 0 0 1 6.81-11.72c20.56-27.65 0 65 0 65h-10.61M364.887 759.682c-10.74-11.15-22.22-18.66-34.33-20.8-76.66-13.52-135.19 242.82-135.19 242.82h185.26"
          stroke="#272B36" stroke-width="2.23" stroke-miterlimit="10"/>
    <path d="m741.066 829.48 4.96 10.06 11.1 1.611-8.03 7.829 1.89 11.051-9.92-5.211-9.93 5.211 1.89-11.051-8.03-7.829 11.1-1.611 4.97-10.06ZM980.049 931.482a3.33 3.33 0 1 0 0-6.66 3.33 3.33 0 0 0 0 6.66Z"
          fill="#fff"/>
    <path d="M976.6 361.421s49.62 137-42.32 171.1c0 0 1.72 46.86-54.85 47.81-56.57.95-83-48.54-83-48.54l-7-127 81.25-66 122.74 3.24-16.82 19.39Z"
          fill="#C99D66" stroke="#272B36" stroke-width="2.23" stroke-miterlimit="10"/>
    <path d="m979.85 312.811-114.8-9.12-87.12 48.14-39 73 26.43 65.92-5.59 1.34 6.86 39.1s11 5.07 27.23 4.93c16.23-.14 18-19 18-19 23.08-6.85 8.24-25.38 8.24-25.38s-18.88-3.76-16.17-16.21c4.69-21.58 23.88-6 23.88-6s11.31 4.14 20.75-9.09-3.56-28.15-3.56-28.15c34.08-18.07 6-49.39 6-49.39 16.81 1.83 19.65-14.16 19.65-14.16 30.02 8.79 35.35-9.45 35.35-9.45 23.55 15.61 39.92-3.26 39.92-3.26 16.37 27 39.38 12.68 39.38 12.68l34.65-20.11-40.1-35.79Z"
          fill="#FA3369"/>
    <path d="M937.348 446.212a46.774 46.774 0 0 0 28-1.22M951.679 411.611l5.23 16.41-8.44 4.33" stroke="#272B36"
          stroke-width="2.23" stroke-miterlimit="10"/>
    <path d="M926.529 416.881c2.55 0 2.56-4 0-4s-2.56 4 0 4ZM971.998 414.182c2.55 0 2.56-4 0-4s-2.56 4 0 4Z"
          fill="#272B36"/>
    <path d="M811.837 517.121s-1.77 18.9-18 19c-16.23.1-27.23-4.93-27.23-4.93s-29.31 5.87-33.61-20.7c0 0 .63-8.79-5.65-10.94-6.28-2.15-24.31-6.61-25-30.07 0 0-.57-8.78-3.82-10.81-3.25-2.03-49.49-25-14.8-67.27 0 0-37.48-57.8 12.95-73.59M830.617 214.891s27.1-45.38 78.15-20.81c0 0 28.45-21.2 52.45.09 24 21.29 14.52 26.34 45.273 36 30.75 9.66 53.8 55.21 30.9 71.67 0 0 31.17 19.16 30.12 52.73-1.05 33.57-25 39.42-25 39.42s24.24 34.21 3.81 61.82-40.44 24.41-52.903 45.76c-7 12-22.63 15.56-34.94 16.36"
          stroke="#272B36" stroke-width="2.23" stroke-miterlimit="10"/>
    <path d="M897.676 448.52c7.053 0 12.77-5.717 12.77-12.77 0-7.052-5.717-12.77-12.77-12.77-7.052 0-12.77 5.718-12.77 12.77 0 7.053 5.718 12.77 12.77 12.77ZM981.617 427.981a12.772 12.772 0 0 0 8.33 12 201.396 201.396 0 0 0-1.11-23.45 12.75 12.75 0 0 0-7.22 11.45Z"
          fill="#E5B076"/>
    <path d="M934.277 531.521s-13.26 4.651-25 5.591Z" fill="#fff"/>
    <path d="M934.277 531.521s-13.26 4.651-25 5.591M986.996 403.781c2.51 15.61 4 33.89 2.08 51.91" stroke="#272B36"
          stroke-width="2.23" stroke-miterlimit="10"/>
</svg>